<?xml version="1.0" encoding="UTF-8" standalone="no"?>
<svg
   version="1.0"
   width="2000.000000pt"
   height="2000.000000pt"
   viewBox="0 0 2000.000000 2000.000000"
   preserveAspectRatio="xMidYMid meet"
   id="svg6"
   sodipodi:docname="Metasploit1.svg"
   inkscape:version="1.4 (e7c3feb100, 2024-10-09)"
   xmlns:inkscape="http://www.inkscape.org/namespaces/inkscape"
   xmlns:sodipodi="http://sodipodi.sourceforge.net/DTD/sodipodi-0.dtd"
   xmlns="http://www.w3.org/2000/svg"
   xmlns:svg="http://www.w3.org/2000/svg">
  <defs
     id="defs6" />
  <sodipodi:namedview
     id="namedview6"
     pagecolor="#ffffff"
     bordercolor="#000000"
     borderopacity="0.25"
     inkscape:showpageshadow="2"
     inkscape:pageopacity="0.0"
     inkscape:pagecheckerboard="0"
     inkscape:deskcolor="#d1d1d1"
     inkscape:document-units="pt"
     inkscape:zoom="0.217875"
     inkscape:cx="1333.3333"
     inkscape:cy="1333.3333"
     inkscape:window-width="1440"
     inkscape:window-height="832"
     inkscape:window-x="0"
     inkscape:window-y="0"
     inkscape:window-maximized="1"
     inkscape:current-layer="svg6" />
  <g
     transform="translate(0.000000,2000.000000) scale(0.100000,-0.100000)"
     fill="#000000"
     stroke="none"
     id="g6"
     style="fill:#d00000;fill-opacity:1">
    <path
       d="M9125 19934 c-159 -25 -476 -92 -630 -134 -809 -220 -1550 -608 -2210 -1156 -167 -139 -560 -532 -699 -699 -1050 -1264 -1512 -2841 -1306 -4460 12 -88 22 -168 23 -179 2 -15 -26 -30 -153 -83 -1767 -728 -3049 -2261 -3454 -4128 -81 -373 -116 -684 -123 -1105 -10 -594 51 -1091 203 -1645 56 -202 208 -643 225 -648 2 -1 44 21 92 48 72 41 87 54 84 70 -3 11 -26 92 -51 180 -492 1684 175 3508 1639 4480 518 344 1096 561 1719 646 196 27 644 37 849 19 1225 -104 2339 -755 3016 -1763 28 -43 55 -76 59 -74 67 38 473 273 489 283 21 13 22 15 7 56 -40 113 -49 182 -49 358 0 191 10 250 65 401 136 372 460 648 863 734 l27 5 -2 298 -3 297 -45 2 c-25 2 -112 10 -195 19 -1176 124 -2247 770 -2913 1756 -563 835 -792 1842 -647 2843 200 1377 1106 2562 2386 3119 224 97 563 205 777 246 l62 13 0 108 c0 60 -3 108 -7 108 -5 -1 -48 -8 -98 -15z"
       id="path1"
       style="fill:#d00000;fill-opacity:1" />
    <path
       d="M10770 19841 l0 -108 63 -13 c311 -60 712 -203 1022 -364 1565 -812 2419 -2529 2125 -4271 -147 -869 -604 -1706 -1249 -2289 -585 -529 -1254 -861 -2011 -1000 -124 -22 -371 -53 -480 -59 l-45 -2 -3 -297 -2 -298 27 -5 c403 -86 727 -362 863 -734 55 -151 65 -210 65 -401 0 -176 -9 -245 -49 -358 -15 -41 -14 -43 7 -56 16 -10 422 -245 489 -283 4 -2 31 31 59 74 441 656 1084 1177 1820 1477 336 136 655 220 1049 273 193 26 753 26 955 0 643 -83 1233 -302 1760 -652 1177 -784 1860 -2131 1794 -3541 -15 -328 -66 -635 -155 -939 -25 -88 -48 -169 -51 -180 -3 -16 12 -29 79 -67 46 -25 87 -47 92 -48 13 -2 70 145 145 373 160 482 247 928 282 1447 15 219 6 730 -15 930 -82 757 -280 1424 -615 2075 -284 551 -605 990 -1051 1435 -302 303 -551 508 -895 735 -304 202 -682 402 -1000 530 -77 31 -143 59 -147 63 -3 4 0 45 7 92 8 47 21 148 29 225 160 1445 -241 2914 -1115 4080 -172 231 -308 385 -543 621 -479 478 -934 805 -1531 1099 -514 253 -1041 423 -1595 515 -69 11 -137 22 -152 25 l-28 5 0 -109z"
       id="path2"
       style="fill:#d00000;fill-opacity:1" />
    <path
       d="M9680 15184 c-1072 -74 -2057 -451 -2899 -1110 -11 -9 -3 -30 49 -120 175 -305 373 -558 634 -812 l138 -133 36 28 c483 368 1028 618 1598 732 612 122 1234 97 1830 -74 456 -131 901 -357 1295 -658 l36 -27 115 109 c238 227 457 502 632 794 42 70 79 133 82 140 6 16 -190 165 -381 290 -692 453 -1466 729 -2315 823 -138 15 -714 27 -850 18z"
       id="path3"
       style="fill:#d00000;fill-opacity:1" />
    <path
       d="M4867 10763 c-19 -30 -49 -391 -54 -653 -6 -319 4 -523 43 -808 231 -1717 1321 -3221 2879 -3973 131 -63 348 -159 360 -159 2 0 30 46 63 103 130 223 235 457 316 707 57 173 121 430 109 440 -4 4 -53 26 -108 50 -316 132 -662 346 -949 586 -145 121 -400 380 -512 519 -661 825 -962 1874 -831 2898 l13 97 -66 21 c-223 70 -545 136 -780 159 -162 16 -476 25 -483 13z"
       id="path4"
       style="fill:#d00000;fill-opacity:1" />
    <path
       d="M14785 10764 c-362 -31 -622 -79 -900 -168 l-81 -26 13 -97 c76 -592 -3 -1263 -213 -1815 -200 -525 -470 -950 -853 -1342 -359 -366 -769 -650 -1216 -841 -60 -26 -114 -51 -118 -55 -11 -10 50 -257 101 -415 46 -139 121 -329 184 -465 42 -90 181 -346 197 -363 17 -18 434 176 671 312 873 501 1570 1225 2033 2111 331 633 524 1322 578 2055 21 285 0 836 -40 1069 l-7 41 -154 1 c-85 0 -173 -1 -195 -2z"
       id="path5"
       style="fill:#d00000;fill-opacity:1" />
    <path
       d="M8850 9115 c-134 -78 -246 -147 -248 -153 -2 -6 15 -46 37 -89 169 -336 307 -791 365 -1203 59 -415 44 -923 -40 -1340 -135 -677 -445 -1318 -886 -1834 -96 -112 -314 -331 -429 -432 -465 -405 -1054 -712 -1658 -863 -370 -93 -560 -115 -986 -115 -295 0 -361 2 -500 21 -771 106 -1444 391 -2026 857 -143 115 -349 307 -439 409 -41 47 -80 86 -87 86 -7 1 -51 -22 -98 -50 l-85 -50 47 -61 c186 -237 567 -629 798 -822 811 -675 1750 -1109 2770 -1281 365 -61 633 -79 1058 -72 403 7 630 29 987 98 897 174 1736 556 2458 1119 100 78 124 90 137 70 12 -20 327 -251 467 -343 777 -511 1630 -815 2593 -923 193 -22 756 -30 967 -15 437 33 812 99 1221 217 722 208 1424 574 2012 1048 309 249 667 610 898 904 l47 61 -85 50 c-47 28 -91 51 -98 50 -7 0 -46 -39 -87 -86 -135 -153 -383 -374 -590 -525 -555 -403 -1187 -651 -1905 -745 -195 -25 -749 -25 -940 0 -737 98 -1380 355 -1947 780 -172 128 -293 235 -460 403 -325 330 -555 657 -758 1078 -199 411 -313 805 -377 1291 -25 199 -26 718 0 925 56 446 180 876 364 1263 34 71 53 121 47 126 -10 10 -493 291 -500 291 -2 0 -41 -36 -86 -81 -220 -216 -497 -329 -808 -329 -311 0 -592 114 -810 331 -44 43 -83 79 -88 78 -4 0 -117 -65 -252 -144z"
       id="path6"
       style="fill:#d00000;fill-opacity:1" />
  </g>
</svg>
